# Blender v2.81 (sub 16) OBJ File: 'Sketchfab_2016_12_14_13_37_50.blend'
# www.blender.org
mtllib queen.mtl
o LP_Queen_Sphere.001
v 0.066931 0.657599 0.067060
v 0.094655 0.657599 0.000000
v 0.066552 0.663820 0.000000
v 0.047060 0.663820 0.047151
v -0.000000 0.657599 0.094838
v -0.000000 0.663820 0.066681
v 0.065462 0.636878 0.065589
v 0.092578 0.636878 0.000000
v 0.066931 0.657599 -0.067060
v 0.047060 0.663820 -0.047150
v 0.071689 0.721137 0.000000
v 0.050692 0.721137 0.050790
v -0.066931 0.657599 0.067060
v -0.047060 0.663820 0.047150
v -0.000000 0.636878 0.092757
v -0.000000 0.721137 0.071828
v 0.093366 0.621897 0.093547
v 0.132040 0.621897 0.000000
v 0.065463 0.636878 -0.065589
v 0.000000 0.657599 -0.094838
v 0.000000 0.663820 -0.066681
v 0.050692 0.721137 -0.050790
v 0.123305 0.787348 -0.000988
v 0.087190 0.787348 0.086370
v -0.094655 0.657599 -0.000000
v -0.066552 0.663820 -0.000000
v -0.065463 0.636878 0.065589
v -0.050692 0.721137 0.050790
v -0.000000 0.621897 0.132295
v -0.000000 0.787348 0.122555
v 0.046991 0.577304 0.047082
v 0.066456 0.577304 0.000000
v 0.093366 0.621897 -0.093547
v 0.000000 0.636878 -0.092757
v -0.066931 0.657599 -0.067060
v -0.047060 0.663820 -0.047151
v 0.000000 0.721137 -0.071828
v 0.087190 0.787348 -0.088347
v -0.092578 0.636878 -0.000000
v -0.071689 0.721137 -0.000000
v -0.093366 0.621897 0.093546
v -0.087190 0.787348 0.086370
v -0.000000 0.577304 0.066584
v 0.048053 0.401121 0.048146
v 0.067958 0.401121 0.000000
v 0.046992 0.577304 -0.047082
v 0.000000 0.621897 -0.132295
v -0.065463 0.636878 -0.065589
v -0.050692 0.721137 -0.050790
v 0.000000 0.787348 -0.124532
v -0.132040 0.621897 -0.000000
v -0.123305 0.787348 -0.000988
v -0.046992 0.577304 0.047082
v -0.000000 0.401121 0.068089
v 0.058607 0.333977 0.058720
v 0.082882 0.333977 0.000000
v 0.048054 0.401121 -0.048146
v 0.000000 0.577304 -0.066584
v -0.093366 0.621897 -0.093547
v -0.087190 0.787348 -0.088347
v 0.062009 0.806884 -0.000988
v 0.043807 0.806884 0.043039
v -0.066456 0.577304 -0.000000
v -0.062009 0.806884 -0.000988
v -0.048054 0.401121 0.048146
v -0.000000 0.333977 0.083042
v 0.000000 0.806884 0.061219
v 0.072798 0.292473 0.072938
v 0.102952 0.292473 0.000000
v 0.058607 0.333977 -0.058720
v 0.000000 0.401121 -0.068089
v -0.046992 0.577304 -0.047082
v -0.043807 0.806884 -0.045015
v 0.043807 0.806884 -0.045015
v 0.025248 0.843953 -0.001007
v 0.017870 0.843922 0.016956
v -0.067958 0.401121 -0.000000
v -0.058607 0.333977 0.058720
v -0.043807 0.806884 0.043039
v -0.000000 0.292473 0.103151
v -0.000002 0.843980 0.024383
v 0.128167 0.281200 0.000000
v 0.090627 0.281200 0.090803
v 0.072798 0.292473 -0.072938
v 0.000000 0.333977 -0.083042
v -0.048054 0.401121 -0.048146
v -0.138439 0.837286 -0.050897
v 0.000000 0.806884 -0.063196
v 0.017881 0.843960 -0.018800
v -0.082882 0.333977 -0.000000
v -0.072798 0.292473 0.072938
v -0.000000 0.281200 0.128414
v 0.126495 0.272294 0.000000
v 0.089446 0.272294 0.089618
v 0.090628 0.281200 -0.090802
v 0.000000 0.292473 -0.103151
v -0.058607 0.333977 -0.058720
v -0.000002 0.844072 -0.026254
v -0.102952 0.292473 -0.000000
v -0.025253 0.843953 -0.001007
v -0.017874 0.843922 0.016956
v -0.090628 0.281200 0.090802
v -0.000000 0.272294 0.126739
v 0.189667 0.195033 0.000000
v 0.134115 0.195033 0.134374
v 0.089446 0.272294 -0.089618
v 0.000000 0.281200 -0.128414
v -0.072798 0.292473 -0.072938
v -0.017668 0.844065 -0.018933
v -0.128167 0.281200 -0.000000
v -0.089446 0.272294 0.089618
v 0.000000 0.195033 0.190033
v 0.159364 0.147383 0.000000
v 0.112687 0.147383 0.112905
v 0.134115 0.195033 -0.134374
v 0.000000 0.272294 -0.126739
v -0.090628 0.281200 -0.090802
v -0.126495 0.272294 -0.000000
v -0.134115 0.195033 0.134374
v 0.000000 0.147383 0.159671
v 0.189087 0.126632 0.000000
v 0.133705 0.126632 0.133963
v 0.112687 0.147383 -0.112905
v 0.000000 0.195033 -0.190033
v -0.089446 0.272294 -0.089618
v -0.189667 0.195033 -0.000000
v -0.112687 0.147383 0.112905
v 0.000000 0.126632 0.189452
v 0.201044 0.085938 0.000000
v 0.142159 0.085938 0.142434
v 0.133705 0.126632 -0.133963
v 0.000000 0.147383 -0.159671
v -0.134115 0.195033 -0.134374
v -0.159364 0.147383 -0.000000
v -0.133705 0.126632 0.133963
v 0.000000 0.085938 0.201432
v -0.142160 0.085938 0.142434
v -0.201044 0.085938 -0.000000
v -0.142160 0.085938 -0.142434
v 0.000000 0.085938 -0.201432
v 0.142160 0.085938 -0.142434
v 0.000000 0.126632 -0.189452
v -0.112687 0.147383 -0.112905
v -0.189087 0.126632 -0.000000
v -0.133705 0.126632 -0.133963
v 0.032681 0.861806 -0.000916
v 0.023108 0.884917 -0.000916
v 0.016339 0.884917 0.015425
v 0.023108 0.861806 0.022194
v 0.023108 0.861806 -0.024027
v 0.016339 0.884917 -0.017258
v -0.000002 0.894489 -0.000916
v -0.000002 0.884917 0.022194
v -0.000002 0.861806 0.031767
v -0.000002 0.861806 -0.033599
v -0.000002 0.884917 -0.024027
v -0.016344 0.884917 0.015425
v -0.023113 0.861806 0.022194
v -0.023113 0.861806 -0.024027
v -0.016344 0.884917 -0.017258
v -0.023113 0.884917 -0.000916
v -0.032685 0.861806 -0.000916
v -0.055539 0.837286 -0.130588
v 0.062337 0.837286 -0.134443
v 0.132081 0.837286 -0.061909
v 0.135801 0.837286 0.060840
v 0.057687 0.837286 0.134304
v -0.055824 0.837286 0.136032
v -0.139373 0.837286 0.062855
vn 0.2153 0.9725 0.0890
vn 0.0892 0.9726 0.2149
vn 0.9202 -0.0922 0.3804
vn 0.2153 0.9725 -0.0890
vn 0.9210 -0.0825 0.3808
vn -0.0892 0.9726 0.2149
vn 0.3817 -0.0924 0.9197
vn 0.3820 -0.0827 0.9205
vn 0.3511 0.9250 0.1452
vn 0.9202 -0.0922 -0.3804
vn 0.0892 0.9726 -0.2149
vn 0.9210 -0.0825 -0.3807
vn 0.7518 -0.5815 0.3108
vn -0.2153 0.9725 0.0890
vn -0.3817 -0.0924 0.9197
vn -0.3820 -0.0827 0.9205
vn 0.1455 0.9252 0.3505
vn 0.3129 -0.5776 0.7539
vn 0.5477 -0.8055 0.2264
vn 0.3511 0.9250 -0.1452
vn 0.3817 -0.0924 -0.9197
vn -0.0892 0.9726 -0.2149
vn 0.3820 -0.0827 -0.9205
vn 0.7478 -0.5876 -0.3091
vn -0.2905 0.9493 -0.1201
vn -0.2153 0.9725 -0.0890
vn -0.9202 -0.0922 0.3804
vn -0.9210 -0.0825 0.3808
vn -0.1455 0.9252 0.3505
vn -0.3129 -0.5776 0.7539
vn 0.2270 -0.8059 0.5469
vn 0.2336 0.7328 -0.6391
vn 0.9241 0.0079 0.3820
vn 0.5477 -0.8055 -0.2264
vn 0.1455 0.9252 -0.3505
vn -0.3817 -0.0924 -0.9197
vn -0.3820 -0.0827 -0.9205
vn 0.3088 -0.5923 -0.7441
vn 0.2343 0.7350 0.6363
vn -0.9202 -0.0922 -0.3804
vn -0.9210 -0.0825 -0.3808
vn -0.3511 0.9250 0.1452
vn -0.7518 -0.5815 0.3108
vn -0.2270 -0.8059 0.5469
vn -0.3017 0.9452 0.1247
vn 0.3833 0.0079 0.9236
vn 0.9052 0.2012 0.3742
vn 0.9241 0.0079 -0.3820
vn 0.2270 -0.8059 -0.5469
vn -0.1455 0.9252 -0.3505
vn -0.3088 -0.5923 -0.7441
vn -0.1230 0.9471 0.2965
vn -0.3511 0.9250 -0.1452
vn -0.7478 -0.5876 -0.3091
vn -0.5477 -0.8055 0.2264
vn -0.3550 0.6663 -0.6558
vn -0.3833 0.0079 0.9236
vn 0.3755 0.2015 0.9047
vn -0.7706 -0.5519 -0.3186
vn 0.8437 0.4080 0.3488
vn 0.9052 0.2012 -0.3742
vn 0.3833 0.0079 -0.9236
vn -0.2270 -0.8059 -0.5469
vn 0.1311 0.9397 0.3159
vn 0.6814 0.6756 0.2815
vn -0.5477 -0.8055 -0.2264
vn -0.9241 0.0079 0.3820
vn -0.3755 0.2015 0.9047
vn 0.3499 0.4084 0.8431
vn 0.2830 0.6763 0.6801
vn 0.4025 0.9002 0.1664
vn 0.8437 0.4080 -0.3488
vn 0.3755 0.2015 -0.9047
vn -0.3833 0.0079 -0.9236
vn 0.6813 0.6756 -0.2817
vn -0.9241 0.0079 -0.3820
vn -0.9052 0.2012 0.3742
vn -0.3499 0.4084 0.8431
vn -0.2830 0.6762 0.6801
vn 0.1667 0.9004 0.4018
vn 0.9105 -0.1709 0.3764
vn 0.4025 0.9002 -0.1664
vn 0.3499 0.4084 -0.8431
vn -0.3755 0.2015 -0.9047
vn 0.2835 0.6768 -0.6794
vn -0.9052 0.2012 -0.3742
vn -0.8437 0.4080 0.3488
vn -0.6814 0.6756 0.2815
vn -0.1667 0.9004 0.4018
vn 0.3777 -0.1711 0.9100
vn 0.7373 0.6029 0.3048
vn 0.9105 -0.1709 -0.3764
vn 0.1667 0.9004 -0.4018
vn -0.3499 0.4084 -0.8431
vn -0.2824 0.6760 -0.6806
vn -0.8437 0.4080 -0.3488
vn -0.6809 0.6758 -0.2822
vn -0.4025 0.9002 0.1664
vn -0.3777 -0.1711 0.9100
vn 0.3057 0.6034 0.7365
vn 0.7967 -0.5067 0.3294
vn 0.7373 0.6029 -0.3048
vn 0.3777 -0.1711 -0.9100
vn -0.1667 0.9004 -0.4018
vn -0.4025 0.9002 -0.1664
vn -0.9105 -0.1709 0.3764
vn -0.3057 0.6034 0.7365
vn 0.3304 -0.5072 0.7960
vn 0.5570 0.7979 0.2303
vn 0.7967 -0.5067 -0.3294
vn 0.3057 0.6034 -0.7365
vn -0.3777 -0.1711 -0.9100
vn -0.9105 -0.1709 -0.3764
vn -0.7373 0.6029 0.3048
vn -0.3304 -0.5072 0.7960
vn 0.2308 0.7983 0.5562
vn 0.8918 0.2620 0.3687
vn 0.5570 0.7979 -0.2303
vn 0.3304 -0.5072 -0.7960
vn -0.3057 0.6034 -0.7365
vn -0.7373 0.6029 -0.3048
vn -0.7967 -0.5067 0.3294
vn -0.2309 0.7983 0.5562
vn 0.3699 0.2624 0.8913
vn 0.0000 -1.0000 -0.0000
vn 0.8918 0.2620 -0.3687
vn 0.2309 0.7983 -0.5562
vn -0.3304 -0.5072 -0.7960
vn -0.7967 -0.5067 -0.3294
vn -0.5570 0.7979 0.2303
vn -0.3699 0.2624 0.8913
vn -0.8918 0.2620 0.3687
vn -0.8918 0.2620 -0.3687
vn -0.3699 0.2624 -0.8913
vn 0.3699 0.2624 -0.8913
vn -0.2309 0.7983 -0.5562
vn -0.5570 0.7979 -0.2303
vn 0.8629 0.3574 0.3574
vn 0.8629 -0.3590 0.3558
vn 0.8629 0.3574 -0.3574
vn 0.3780 0.9125 0.1566
vn 0.3574 0.3574 0.8629
vn 0.8629 -0.3574 -0.3574
vn 0.3574 -0.3574 0.8629
vn 0.3574 0.3574 -0.8629
vn 0.3780 0.9125 -0.1566
vn 0.1566 0.9125 0.3780
vn -0.3574 0.3574 0.8629
vn 0.3574 -0.3574 -0.8629
vn -0.3574 -0.3574 0.8629
vn -0.3574 0.3574 -0.8629
vn 0.1566 0.9125 -0.3780
vn -0.1566 0.9125 0.3780
vn -0.8629 0.3574 0.3574
vn -0.3574 -0.3574 -0.8629
vn -0.8629 -0.3590 0.3558
vn -0.8629 0.3574 -0.3574
vn -0.1566 0.9125 -0.3780
vn -0.3780 0.9125 0.1566
vn -0.8598 -0.3617 -0.3605
vn -0.3780 0.9125 -0.1566
vn -0.2099 0.6586 0.7226
vn 0.2966 0.9471 0.1226
vn 0.2763 0.7418 -0.6111
vn -0.6432 0.6894 0.3331
vn 0.6648 0.7118 -0.2267
vn -0.3375 -0.4740 -0.8133
vn -0.6302 0.7398 -0.2356
vn 0.3197 -0.5519 -0.7702
vn 0.6581 0.6607 0.3610
vn 0.7824 -0.5321 -0.3235
vn -0.3173 -0.5610 0.7646
vn 0.3199 -0.5509 0.7708
vn 0.7556 -0.5758 0.3124
vn -0.7266 -0.6179 0.3004
vn -0.3486 0.6729 0.6524
vn 0.6407 0.6939 -0.3286
vn -0.1231 0.9470 -0.2967
vn -0.6634 0.7130 0.2271
vn 0.6793 0.6993 0.2227
vn 0.1221 0.9479 -0.2941
vn -0.6321 0.7087 -0.3134
vn 0.3492 0.6723 0.6527
vn 0.2793 0.9532 -0.1155
vn -0.2346 0.7361 -0.6349
usemtl None
s off
f 1//1 2//1 3//1 4//1
f 5//2 1//2 4//2 6//2
f 7//3 8//3 2//3 1//3
f 2//4 9//4 10//4 3//4
f 4//5 3//5 11//5 12//5
f 13//6 5//6 6//6 14//6
f 15//7 7//7 1//7 5//7
f 6//8 4//8 12//8 16//8
f 17//9 18//9 8//9 7//9
f 8//10 19//10 9//10 2//10
f 9//11 20//11 21//11 10//11
f 3//12 10//12 22//12 11//12
f 12//13 11//13 23//13 24//13
f 25//14 13//14 14//14 26//14
f 27//15 15//15 5//15 13//15
f 14//16 6//16 16//16 28//16
f 29//17 17//17 7//17 15//17
f 16//18 12//18 24//18 30//18
f 31//19 32//19 18//19 17//19
f 18//20 33//20 19//20 8//20
f 19//21 34//21 20//21 9//21
f 20//22 35//22 36//22 21//22
f 10//23 21//23 37//23 22//23
f 11//24 22//24 38//24 23//24
f 166//25 61//25 62//25
f 35//26 25//26 26//26 36//26
f 39//27 27//27 13//27 25//27
f 26//28 14//28 28//28 40//28
f 41//29 29//29 15//29 27//29
f 28//30 16//30 30//30 42//30
f 43//31 31//31 17//31 29//31
f 166//32 23//32 61//32
f 44//33 45//33 32//33 31//33
f 32//34 46//34 33//34 18//34
f 33//35 47//35 34//35 19//35
f 34//36 48//36 35//36 20//36
f 21//37 36//37 49//37 37//37
f 22//38 37//38 50//38 38//38
f 61//39 23//39 165//39
f 48//40 39//40 25//40 35//40
f 36//41 26//41 40//41 49//41
f 51//42 41//42 27//42 39//42
f 40//43 28//43 42//43 52//43
f 53//44 43//44 29//44 41//44
f 165//45 74//45 61//45
f 54//46 44//46 31//46 43//46
f 55//47 56//47 45//47 44//47
f 45//48 57//48 46//48 32//48
f 46//49 58//49 47//49 33//49
f 47//50 59//50 48//50 34//50
f 37//51 49//51 60//51 50//51
f 164//52 88//52 74//52
f 59//53 51//53 39//53 48//53
f 49//54 40//54 52//54 60//54
f 63//55 53//55 41//55 51//55
f 165//56 38//56 74//56
f 65//57 54//57 43//57 53//57
f 66//58 55//58 44//58 54//58
f 87//59 60//59 52//59
f 68//60 69//60 56//60 55//60
f 56//61 70//61 57//61 45//61
f 57//62 71//62 58//62 46//62
f 58//63 72//63 59//63 47//63
f 88//64 163//64 73//64
f 76//65 62//65 61//65 75//65
f 72//66 63//66 51//66 59//66
f 77//67 65//67 53//67 63//67
f 78//68 66//68 54//68 65//68
f 80//69 68//69 55//69 66//69
f 81//70 67//70 62//70 76//70
f 82//71 69//71 68//71 83//71
f 69//72 84//72 70//72 56//72
f 70//73 85//73 71//73 57//73
f 71//74 86//74 72//74 58//74
f 75//75 61//75 74//75 89//75
f 86//76 77//76 63//76 72//76
f 90//77 78//77 65//77 77//77
f 91//78 80//78 66//78 78//78
f 101//79 79//79 67//79 81//79
f 83//80 68//80 80//80 92//80
f 93//81 82//81 83//81 94//81
f 95//82 84//82 69//82 82//82
f 84//83 96//83 85//83 70//83
f 85//84 97//84 86//84 71//84
f 89//85 74//85 88//85 98//85
f 97//86 90//86 77//86 86//86
f 99//87 91//87 78//87 90//87
f 100//88 64//88 79//88 101//88
f 92//89 80//89 91//89 102//89
f 94//90 83//90 92//90 103//90
f 104//91 93//91 94//91 105//91
f 106//92 95//92 82//92 93//92
f 107//93 96//93 84//93 95//93
f 96//94 108//94 97//94 85//94
f 98//95 88//95 73//95 109//95
f 108//96 99//96 90//96 97//96
f 109//97 73//97 64//97 100//97
f 102//98 91//98 99//98 110//98
f 103//99 92//99 102//99 111//99
f 105//100 94//100 103//100 112//100
f 113//101 104//101 105//101 114//101
f 115//102 106//102 93//102 104//102
f 116//103 107//103 95//103 106//103
f 117//104 108//104 96//104 107//104
f 110//105 99//105 108//105 117//105
f 111//106 102//106 110//106 118//106
f 112//107 103//107 111//107 119//107
f 114//108 105//108 112//108 120//108
f 121//109 113//109 114//109 122//109
f 123//110 115//110 104//110 113//110
f 124//111 116//111 106//111 115//111
f 125//112 117//112 107//112 116//112
f 118//113 110//113 117//113 125//113
f 119//114 111//114 118//114 126//114
f 120//115 112//115 119//115 127//115
f 122//116 114//116 120//116 128//116
f 129//117 121//117 122//117 130//117
f 131//118 123//118 113//118 121//118
f 132//119 124//119 115//119 123//119
f 133//120 125//120 116//120 124//120
f 126//121 118//121 125//121 133//121
f 127//122 119//122 126//122 134//122
f 128//123 120//123 127//123 135//123
f 130//124 122//124 128//124 136//124
f 129//125 130//125 136//125 137//125 138//125 139//125 140//125 141//125
f 141//126 131//126 121//126 129//126
f 142//127 132//127 123//127 131//127
f 143//128 133//128 124//128 132//128
f 134//129 126//129 133//129 143//129
f 135//130 127//130 134//130 144//130
f 136//131 128//131 135//131 137//131
f 137//132 135//132 144//132 138//132
f 138//133 144//133 145//133 139//133
f 139//134 145//134 142//134 140//134
f 140//135 142//135 131//135 141//135
f 145//136 143//136 132//136 142//136
f 144//137 134//137 143//137 145//137
f 146//138 147//138 148//138 149//138
f 75//139 146//139 149//139 76//139
f 150//140 151//140 147//140 146//140
f 147//141 152//141 148//141
f 149//142 148//142 153//142 154//142
f 89//143 150//143 146//143 75//143
f 76//144 149//144 154//144 81//144
f 155//145 156//145 151//145 150//145
f 151//146 152//146 147//146
f 148//147 152//147 153//147
f 154//148 153//148 157//148 158//148
f 98//149 155//149 150//149 89//149
f 81//150 154//150 158//150 101//150
f 159//151 160//151 156//151 155//151
f 156//152 152//152 151//152
f 153//153 152//153 157//153
f 158//154 157//154 161//154 162//154
f 109//155 159//155 155//155 98//155
f 101//156 158//156 162//156 100//156
f 162//157 161//157 160//157 159//157
f 160//158 152//158 156//158
f 157//159 152//159 161//159
f 100//160 162//160 159//160 109//160
f 161//161 152//161 160//161
f 52//162 64//162 87//162
f 64//163 73//163 87//163
f 87//164 73//164 60//164
f 60//165 73//165 163//165
f 88//166 50//166 163//166
f 50//167 60//167 163//167
f 88//168 164//168 50//168
f 38//169 50//169 164//169
f 38//170 164//170 74//170
f 165//171 23//171 38//171
f 168//172 42//172 30//172
f 167//173 30//173 24//173
f 24//174 23//174 166//174
f 169//175 52//175 42//175
f 62//176 24//176 166//176
f 167//177 24//177 62//177
f 167//178 62//178 67//178
f 67//179 30//179 167//179
f 168//180 30//180 67//180
f 168//181 67//181 79//181
f 79//182 42//182 168//182
f 42//183 79//183 169//183
f 79//184 64//184 169//184
f 52//185 169//185 64//185
